<svg xmlns="http://www.w3.org/2000/svg" viewBox="0 0 200 260" fill="none" stroke="#2A2926" stroke-width="1.1" stroke-linecap="round" stroke-linejoin="round">

  <!-- ===== HEART FLOWER (top) ===== -->
  <!-- Left lobe outer -->
  <path d="M97 60 C95 50, 86 28, 76 22 C68 17, 62 20, 62 28 C62 38, 74 52, 88 58 C92 60, 95 60, 97 60"/>
  <!-- Right lobe outer -->
  <path d="M97 60 C99 50, 108 28, 118 22 C126 17, 132 20, 132 28 C132 38, 120 52, 106 58 C102 60, 99 60, 97 60"/>
  <!-- Left lobe inner spiral -->
  <path d="M97 54 C95 48, 90 34, 84 30 C78 26, 75 30, 76 36 C77 42, 86 52, 97 54"/>
  <!-- Right lobe inner spiral -->
  <path d="M97 54 C99 48, 104 34, 110 30 C116 26, 119 30, 118 36 C117 42, 108 52, 97 54"/>

  <!-- ===== MAIN STEM ===== -->
  <!-- Continuous stem from heart to hand -->
  <path d="M97 60 C96 70, 95 80, 94 90 C93 102, 91 114, 91 126 C91 138, 93 148, 96 158 C98 165, 100 170, 102 176"/>

  <!-- ===== RIGHT LEAF (upper right) ===== -->
  <!-- Outer shape -->
  <path d="M95 86 C100 80, 112 72, 126 70 C136 68, 142 74, 138 82 C134 90, 120 96, 108 94 C100 92, 96 90, 95 88"/>
  <!-- Center vein -->
  <path d="M95 87 C104 84, 116 78, 130 76"/>

  <!-- ===== LEFT LEAF (lower left) ===== -->
  <!-- Outer shape -->
  <path d="M92 116 C86 110, 72 104, 58 106 C48 108, 44 116, 50 122 C56 128, 72 130, 84 124 C89 121, 91 119, 92 117"/>
  <!-- Center vein -->
  <path d="M92 117 C82 114, 68 110, 54 112"/>

  <!-- ===== SMALL BUD on stem ===== -->
  <path d="M94 144 C90 140, 82 138, 78 142 C74 146, 78 152, 86 152 C90 152, 93 150, 94 148"/>

  <!-- ===== STEM LOOP where it meets hand ===== -->
  <!-- Decorative curl connecting stem to hand -->
  <path d="M102 176 C100 180, 94 186, 86 184 C78 182, 76 176, 80 170 C84 164, 92 164, 98 168"/>

  <!-- Line from curl sweeping left (continuous line feel) -->
  <path d="M86 184 C78 188, 66 194, 54 200"/>

  <!-- ===== HAND ===== -->

  <!-- Wrist / bottom of palm - sweeping from lower left to right -->
  <path d="M44 224 C52 220, 64 212, 78 206 C92 200, 108 196, 122 192"/>

  <!-- Thumb - loops from wrist area -->
  <path d="M72 210 C66 216, 56 224, 48 226 C40 228, 38 224, 40 220 C42 216, 46 214, 54 210"/>

  <!-- Palm top edge connecting to fingers -->
  <path d="M98 168 C106 166, 116 164, 124 162"/>

  <!-- Index finger (topmost, first from top) -->
  <path d="M124 162 C132 158, 144 152, 154 148 C158 146, 162 146, 162 150 C162 154, 154 158, 144 164"/>

  <!-- Middle finger (longest) -->
  <path d="M144 164 C152 160, 164 154, 172 152 C176 150, 178 152, 177 156 C176 160, 168 166, 158 172"/>

  <!-- Ring finger -->
  <path d="M158 172 C164 170, 172 166, 176 164 C180 162, 181 164, 180 168 C178 172, 170 178, 162 180"/>

  <!-- Pinky finger (bottommost) -->
  <path d="M162 180 C166 180, 172 178, 174 178 C178 178, 178 182, 176 184 C172 188, 164 192, 156 192"/>

  <!-- Bottom of fingers connecting back to palm -->
  <path d="M156 192 C146 194, 134 194, 122 192"/>

  <!-- Finger nail details - small curves at tips -->
  <path d="M160 147 C162 146, 163 147, 162 149"/>
  <path d="M174 151 C176 150, 178 151, 177 153"/>
  <path d="M178 163 C180 162, 181 163, 180 165"/>
  <path d="M175 177 C177 177, 178 178, 176 180"/>

</svg>
